<?xml version="1.0" encoding="UTF-8"?>
<svg width="740px" height="740px" viewBox="0 0 740 740" version="1.1" xmlns="http://www.w3.org/2000/svg" xmlns:xlink="http://www.w3.org/1999/xlink">
    <!-- Generator: Sketch 51.2 (57519) - http://www.bohemiancoding.com/sketch -->
    <title>logo</title>
    <desc>Created with Sketch.</desc>
    <defs></defs>
    <g id="Page-1" stroke="none" stroke-width="1" fill="none" fill-rule="evenodd">
        <g id="Artboard" transform="translate(-164.000000, -143.000000)">
            <g id="logo" transform="translate(164.000000, 143.000000)">
                <rect id="Rectangle-6" fill="#FFFFFF" fill-rule="nonzero" x="0" y="0" width="740" height="740" rx="3"></rect>
                <path d="M478.333333,255.5 L708.166667,255.5 L708.166667,489.5 L478.333333,489.5 L478.333333,705 L252.666667,705 L252.666667,489.5 L31.1666667,489.5 L31.1666667,255.5 L252.666667,255.5 L252.666667,34 L478.333333,34 L478.333333,255.5 Z" id="Combined-Shape" fill="#B8E5FA"></path>
                <g id="Group-4-Copy" transform="translate(189.000000, 369.500000) rotate(-180.000000) translate(-189.000000, -369.500000) translate(31.000000, 34.500000)" fill="#2C25B3">
                    <path d="M156.868473,550.60673 C61.4075628,550.60673 -5.68434189e-14,508.078699 -5.68434189e-14,439.399869 C-5.08754657e-14,370.721039 70.2324077,328.861257 156.868473,328.861257 C243.504539,328.861257 313.736946,378.351079 313.736946,439.399869 C313.736946,500.448659 252.329383,550.60673 156.868473,550.60673 Z M157.377163,520.754761 C228.66962,518.239373 281.836234,486.080669 281.836234,443.308009 C281.836234,400.535349 228.66962,365.861257 157.377163,365.861257 C86.0847058,365.861257 34,405.862722 34,443.308009 C34,480.753296 86.0847058,523.270149 157.377163,520.754761 Z" id="Combined-Shape"></path>
                    <path d="M282.523867,334.760404 L282.523867,258.93558 L282.345696,258.93558 C279.809227,205.706719 248.522923,168.418249 166.650414,171.476814 C85.9977966,174.489807 35.90296,218.749934 33.7246536,258.93558 L33.6505861,258.93558 L33.6505861,336.5 L7.95807864e-13,336.5 L7.99777195e-13,138.898033 L34.080706,93 L34.080706,192.887594 C60.9257324,163.982307 105.350585,140.806474 166.71388,140.806474 C272.550014,140.806474 314.630374,188.238083 315.96701,257.075249 L316,257.097038 L316,670 L282.644444,670 L282.644444,625.425329 L192,625.425329 L192,597.402943 L282.644444,597.402943 L282.644444,334.650768 C282.604283,334.687335 282.564091,334.723879 282.523867,334.760401 Z" id="Combined-Shape"></path>
                    <path d="M33.6439074,143.010786 C13.1331436,156.757297 0.0161132812,160.306977 0.0161132812,140.929932 C0.0161132813,32.118474 100.304687,0.73046875 166.039161,0.73046875 C282.297363,0.73046875 315.967529,39.3466797 315.967529,81.2663574 C315.967529,85.6232263 315.967529,94.4725916 315.967529,107.814453 C295.67764,107.814453 284.454251,107.814453 282.297363,107.814453 C282.149373,105.924267 282.252156,102.892877 282.197246,99.1329509 C282.207244,99.129487 282.217243,99.1260229 282.227242,99.1225586 C282.227242,92.0827435 281.430696,85.8150245 279.930209,80.2347654 C276.684009,67.7034801 268.844808,54.2133763 249.943905,46.2996633 C225.906216,35.3918913 191.564859,34.9667969 157.924168,34.9667969 C129.302787,34.9667969 35.3237954,55.1311341 33.6439074,143.010786 Z" id="Combined-Shape"></path>
                </g>
                <g id="Group-4-Copy-2" transform="translate(392.000000, 34.000000)" fill="#2C25B3">
                    <path d="M156.868473,669.60673 C61.4075628,669.60673 0,627.078699 0,558.399869 C5.96795312e-15,489.721039 70.2324077,447.861257 156.868473,447.861257 C243.504539,447.861257 313.736946,497.351079 313.736946,558.399869 C313.736946,619.448659 252.329383,669.60673 156.868473,669.60673 Z M157.377163,639.754761 C228.66962,637.239373 281.836234,605.080669 281.836234,562.308009 C281.836234,519.535349 228.66962,484.861257 157.377163,484.861257 C86.0847058,484.861257 34,524.862722 34,562.308009 C34,599.753296 86.0847058,642.270149 157.377163,639.754761 Z" id="Combined-Shape"></path>
                    <path d="M282.523867,334.760404 L282.523867,258.93558 L282.345696,258.93558 C279.809227,205.706719 248.522923,168.418249 166.650414,171.476814 C85.9977966,174.489807 35.90296,218.749934 33.7246536,258.93558 L33.6505861,258.93558 L33.6505861,336.5 L7.95807864e-13,336.5 L7.99777195e-13,138.898033 L34.080706,93 L34.080706,192.887594 C60.9257324,163.982307 105.350585,140.806474 166.71388,140.806474 C272.550014,140.806474 314.630374,188.238083 315.96701,257.075249 L316,257.097038 L316,670 L282.644444,670 L282.644444,334.650768 C282.604283,334.687335 282.564091,334.723879 282.523867,334.760401 Z" id="Combined-Shape"></path>
                    <path d="M33.6747211,141.741119 C13.1608598,155.260384 0.0415039062,158.642906 0.0415039062,139.262207 C0.0415039063,30.4507494 100.304687,0.73046875 166.039161,0.73046875 C282.297363,0.73046875 315.967529,39.3466797 315.967529,81.2663574 C315.967529,85.6232263 315.967529,94.4725916 315.967529,107.814453 C295.67764,107.814453 284.454251,107.814453 282.297363,107.814453 C282.149373,105.924267 282.252156,102.892877 282.197246,99.1329509 C282.207244,99.129487 282.217243,99.1260229 282.227242,99.1225586 C282.227242,92.0827435 281.430696,85.8150245 279.930209,80.2347654 C276.684009,67.7034801 268.844808,54.2133763 249.943905,46.2996633 C225.906216,35.3918913 191.564859,34.9667969 157.924168,34.9667969 C129.441141,34.9667969 36.2308408,54.93666 33.6747211,141.741119 Z" id="Combined-Shape"></path>
                </g>
            </g>
        </g>
    </g>
</svg>